<svg id="Capa_1" enable-background="new 0 0 512 512" height="512" viewBox="0 0 512 512" width="512" xmlns="http://www.w3.org/2000/svg"><g><path d="m256 166c-57.897 0-105 47.103-105 105s47.103 105 105 105 105-47.103 105-105-47.103-105-105-105zm0 180c-41.355 0-75-33.645-75-75s33.645-75 75-75 75 33.645 75 75-33.645 75-75 75z"/><path d="m256 226c-24.813 0-45 20.187-45 45s20.187 45 45 45 45-20.187 45-45-20.187-45-45-45zm0 60c-8.271 0-15-6.729-15-15s6.729-15 15-15 15 6.729 15 15-6.729 15-15 15z"/><path d="m437 166h-31c-8.284 0-15 6.716-15 15s6.716 15 15 15h31c8.284 0 15-6.716 15-15s-6.716-15-15-15z"/><path d="m467 106h-114.787l-25.607-25.607c-2.813-2.813-6.628-4.393-10.606-4.393h-120c-3.978 0-7.793 1.58-10.606 4.393l-25.609 25.607h-69.785v-15c0-8.284-6.716-15-15-15s-15 6.716-15 15v15h-15c-24.813 0-45 20.187-45 45v240c0 24.813 20.187 45 45 45h422c24.813 0 45-20.187 45-45v-240c0-24.813-20.187-45-45-45zm15 285c0 8.271-6.729 15-15 15h-422c-8.271 0-15-6.729-15-15v-240c0-8.271 6.729-15 15-15h120.998c3.978 0 7.793-1.58 10.606-4.393l25.609-25.607h107.574l25.607 25.607c2.813 2.813 6.628 4.393 10.606 4.393h121c8.271 0 15 6.729 15 15z"/></g></svg>